Coordinates
version=1
nRows=27
nColumns=26
inDegrees=yes

Units are S.I. units (second, meters, Newtons, ...)
If the header above contains a line with 'inDegrees', this indicates whether rotational values are in degrees (yes) or radians (no).

endheader
time	pelvis_tilt	pelvis_list	pelvis_rotation	pelvis_tx	pelvis_ty	pelvis_tz	hip_flexion_r	hip_adduction_r	hip_rotation_r	knee_angle_r	knee_angle_r_beta	ankle_angle_r	subtalar_angle_r	mtp_angle_r	hip_flexion_l	hip_adduction_l	hip_rotation_l	knee_angle_l	knee_angle_l_beta	ankle_angle_l	subtalar_angle_l	mtp_angle_l	lumbar_extension	lumbar_bending	lumbar_rotation
      0.00500000	     -9.04445289	      1.51961531	     -4.76548685	     -0.17184386	      0.97846702	     -0.54266654	     16.10753156	     -6.00035467	    -11.11557676	     23.03760116	      0.40208199	    -18.51491323	      0.00000000	      0.00000000	     15.47588887	     -3.73978783	      4.29213058	     21.79225103	      0.38034653	    -17.04599960	      0.00000000	      0.00000000	     -0.89781266	     -0.02361301	      3.58636156
      0.01000000	     -9.09538337	      1.51647719	     -4.83656565	     -0.17278632	      0.97389925	     -0.54269687	     16.52356342	     -6.03076432	    -11.00693951	     23.83965872	      0.41608054	    -17.51516391	      0.00000000	      0.00000000	     15.95263678	     -3.80138613	      4.07783776	     22.68983943	      0.39601240	    -16.49536655	      0.00000000	      0.00000000	     -1.04383769	     -0.02330327	      3.68209545
      0.01500000	     -9.10026835	      1.54018681	     -4.83559805	     -0.17364968	      0.96916377	     -0.54283509	     16.89474481	     -6.18090843	    -11.11860473	     24.79878479	      0.43282045	    -16.09356676	      0.00000000	      0.00000000	     16.37930574	     -3.80651364	      3.98698412	     23.62389002	      0.41231466	    -15.48422065	      0.00000000	      0.00000000	     -1.23275948	     -0.05536012	      3.68504360
      0.02000000	     -9.11256133	      1.55675639	     -4.84811961	     -0.17454640	      0.96437111	     -0.54295702	     17.27552412	     -6.30893356	    -11.17712852	     25.77103147	      0.44978935	    -14.73450064	      0.00000000	      0.00000000	     16.82155437	     -3.82616035	      3.89340820	     24.59184861	      0.42920873	    -14.44670008	      0.00000000	      0.00000000	     -1.41983863	     -0.07908635	      3.70262306
      0.02500000	     -9.11405085	      1.57261950	     -4.85160165	     -0.17545135	      0.95943465	     -0.54309904	     17.65312737	     -6.45562723	    -11.26154397	     26.83002990	      0.46827236	    -13.24184457	      0.00000000	      0.00000000	     17.26410708	     -3.84306326	      3.83928664	     25.62584644	      0.44725539	    -13.22388743	      0.00000000	      0.00000000	     -1.62396803	     -0.10231409	      3.70420328
      0.03000000	     -9.10620733	      1.58252673	     -4.86330387	     -0.17636691	      0.95437677	     -0.54324037	     18.03640847	     -6.60537589	    -11.34097245	     27.95560744	      0.48791739	    -11.74043391	      0.00000000	      0.00000000	     17.72308985	     -3.87556565	      3.76936485	     26.75249008	      0.46691903	    -11.86774338	      0.00000000	      0.00000000	     -1.84681398	     -0.11857330	      3.71473163
      0.03500000	     -9.09682184	      1.58192234	     -4.89870594	     -0.17731892	      0.94917023	     -0.54335846	     18.44537782	     -6.74149879	    -11.37986751	     29.15023538	      0.50876759	    -10.21211899	      0.00000000	      0.00000000	     18.21229248	     -3.93560139	      3.66878517	     27.97886312	      0.48832328	    -10.44397914	      0.00000000	      0.00000000	     -2.08067269	     -0.12332410	      3.74825893
      0.04000000	     -9.08886955	      1.57624706	     -4.95357357	     -0.17831160	      0.94381872	     -0.54346146	     18.88755930	     -6.87173859	    -11.38470345	     30.39521071	      0.53049650	     -8.64194377	      0.00000000	      0.00000000	     18.73536770	     -4.01277939	      3.54744238	     29.29015403	      0.51120963	     -8.99277262	      0.00000000	      0.00000000	     -2.32258281	     -0.12209058	      3.80320043
      0.04500000	     -9.08237748	      1.57340840	     -5.02004310	     -0.17934083	      0.93832043	     -0.54355521	     19.36884133	     -7.01287251	    -11.37665490	     31.68540180	      0.55301459	     -6.99073335	      0.00000000	      0.00000000	     19.29342567	     -4.09915355	      3.40646341	     30.66950181	      0.53528379	     -7.49068246	      0.00000000	      0.00000000	     -2.56988801	     -0.12420212	      3.86737998
      0.05000000	     -9.08216969	      1.57973118	     -5.08846626	     -0.18041953	      0.93267161	     -0.54365521	     19.89608860	     -7.17605824	    -11.36450851	     33.01172802	      0.57616335	     -5.26047807	      0.00000000	      0.00000000	     19.89059246	     -4.18435450	      3.26002994	     32.09459963	      0.56015644	     -5.93027946	      0.00000000	      0.00000000	     -2.81781534	     -0.13578832	      3.93120271
      0.05500000	     -9.09818203	      1.59783260	     -5.14854521	     -0.18156510	      0.92687406	     -0.54377446	     20.47599320	     -7.36032958	    -11.34667025	     34.36289144	      0.59974560	     -3.47922910	      0.00000000	      0.00000000	     20.53103816	     -4.25813681	      3.13216663	     33.53698141	      0.58533075	     -4.34204143	      0.00000000	      0.00000000	     -3.05570427	     -0.15830157	      3.98260090
      0.06000000	     -9.13160168	      1.62103034	     -5.19413569	     -0.18277685	      0.92094180	     -0.54392329	     21.10008758	     -7.55308138	    -11.32727640	     35.72112997	      0.62345133	     -1.71482522	      0.00000000	      0.00000000	     21.21014079	     -4.32658069	      3.02494440	     34.97865373	      0.61049268	     -2.77733904	      0.00000000	      0.00000000	     -3.28440438	     -0.18399562	      4.01774655
      0.06500000	     -9.18257482	      1.64248354	     -5.22273344	     -0.18405463	      0.91488904	     -0.54411119	     21.76865045	     -7.74817788	    -11.31648631	     37.09486312	      0.64742750	     -0.01043417	      0.00000000	      0.00000000	     21.92595390	     -4.39736416	      2.93253977	     36.41310353	      0.63552855	     -1.27945471	      0.00000000	      0.00000000	     -3.50403514	     -0.20436653	      4.03408505
      0.07000000	     -9.24971439	      1.66003733	     -5.23420407	     -0.18538910	      0.90873622	     -0.54434185	     22.47891104	     -7.94379404	    -11.31970986	     38.49134030	      0.67180062	      1.59677232	      0.00000000	      0.00000000	     22.67542845	     -4.47245935	      2.84473256	     37.83839355	      0.66040455	      0.11603928	      0.00000000	      0.00000000	     -3.71633671	     -0.21622727	      4.03579372
      0.07500000	     -9.32960513	      1.66881754	     -5.22789033	     -0.18676991	      0.90251549	     -0.54461429	     23.22656224	     -8.13741835	    -11.34764704	     39.91971574	      0.69673048	      3.11108604	      0.00000000	      0.00000000	     23.45624779	     -4.55621025	      2.75659201	     39.26164526	      0.68524498	      1.38741238	      0.00000000	      0.00000000	     -3.92209193	     -0.21436898	      4.01784635
      0.08000000	     -9.41759526	      1.66531842	     -5.20879843	     -0.18819210	      0.89626136	     -0.54491598	     24.00987870	     -8.32479880	    -11.39763918	     41.38864894	      0.72236820	      4.53573484	      0.00000000	      0.00000000	     24.26817510	     -4.65664381	      2.65540850	     40.69810028	      0.71031585	      2.55281098	      0.00000000	      0.00000000	     -4.12657820	     -0.19710742	      3.98769430
      0.08500000	     -9.51170072	      1.65162690	     -5.17571836	     -0.18965235	      0.89000707	     -0.54524004	     24.83088792	     -8.51282781	    -11.47199456	     42.90763225	      0.74887946	      5.88069289	      0.00000000	      0.00000000	     25.11559029	     -4.77119875	      2.54346185	     42.16367925	      0.73589503	      3.63955349	      0.00000000	      0.00000000	     -4.32952663	     -0.16704281	      3.93954640
      0.09000000	     -9.60804352	      1.63113200	     -5.13285691	     -0.19114457	      0.88380002	     -0.54557101	     25.68773103	     -8.70387409	    -11.56118889	     44.47734216	      0.77627606	      7.14140694	      0.00000000	      0.00000000	     25.99652661	     -4.89925735	      2.41577388	     43.66658177	      0.76212563	      4.65803643	      0.00000000	      0.00000000	     -4.53358368	     -0.12943431	      3.87765338
      0.09500000	     -9.70136382	      1.60145459	     -5.08016078	     -0.19266168	      0.87770333	     -0.54590298	     26.57193527	     -8.89586697	    -11.66240888	     46.08823432	      0.80439144	      8.31331900	      0.00000000	      0.00000000	     26.90681274	     -5.04367081	      2.27624901	     45.21119989	      0.78908430	      5.62420314	      0.00000000	      0.00000000	     -4.74346230	     -0.08317524	      3.80173314
      0.10000000	     -9.79124510	      1.56969436	     -5.02321396	     -0.19420114	      0.87177247	     -0.54622869	     27.48384903	     -9.09142946	    -11.75706633	     47.72946814	      0.83303637	      9.37509030	      0.00000000	      0.00000000	     27.84079374	     -5.19731445	      2.12563890	     46.78695724	      0.81658645	      6.52940458	      0.00000000	      0.00000000	     -4.96014567	     -0.03690721	      3.72276694
      0.10500000	     -9.87733595	      1.54048985	     -4.96447121	     -0.19575228	      0.86607089	     -0.54654805	     28.41881761	     -9.29179552	    -11.83503669	     49.38311344	      0.86189792	     10.29585079	      0.00000000	      0.00000000	     28.79060344	     -5.35082036	      1.97365843	     48.37719657	      0.84434136	      7.35603343	      0.00000000	      0.00000000	     -5.18354759	      0.00486558	      3.64317054
      0.11000000	     -9.96022146	      1.51862878	     -4.91171904	     -0.19730914	      0.86065542	     -0.54685368	     29.37386493	     -9.49364421	    -11.87793542	     51.03331271	      0.89069933	     11.08150720	      0.00000000	      0.00000000	     29.74533953	     -5.49720979	      1.82343581	     49.95742483	      0.87192155	      8.08320315	      0.00000000	      0.00000000	     -5.41385539	      0.03662865	      3.57459740
      0.11500000	    -10.04432718	      1.50367855	     -4.87012005	     -0.19886783	      0.85556158	     -0.54714005	     30.34525579	     -9.68928795	    -11.87681522	     52.65682715	      0.91903501	     11.72896625	      0.00000000	      0.00000000	     30.70086215	     -5.63424655	      1.68417144	     51.50750136	      0.89897549	      8.69774076	      0.00000000	      0.00000000	     -5.64757605	      0.05951404	      3.52389014
      0.12000000	    -10.13259332	      1.49753582	     -4.84478421	     -0.20041528	      0.85080488	     -0.54740195	     31.32791877	     -9.87351855	    -11.82158011	     54.23720952	      0.94661788	     12.24238333	      0.00000000	      0.00000000	     31.64927789	     -5.75754184	      1.56168043	     53.00724268	      0.92515091	      9.19318530	      0.00000000	      0.00000000	     -5.88042030	      0.07192581	      3.49544580
      0.12500000	    -10.22079396	      1.49609914	     -4.83557352	     -0.20193198	      0.84639312	     -0.54763642	     32.30292075	    -10.04304000	    -11.72304387	     55.75539268	      0.97311518	     12.62728649	      0.00000000	      0.00000000	     32.57746591	     -5.86896292	      1.46292964	     54.44282979	      0.95020663	      9.57243240	      0.00000000	      0.00000000	     -6.11519250	      0.07870397	      3.48603337
      0.13000000	    -10.31280905	      1.49643009	     -4.84207850	     -0.20340800	      0.84230485	     -0.54784335	     33.26300085	    -10.19258321	    -11.58418328	     57.20062234	      0.99833919	     12.91795526	      0.00000000	      0.00000000	     33.48074791	     -5.96952950	      1.39415809	     55.80160605	      0.97392175	      9.85867989	      0.00000000	      0.00000000	     -6.34546070	      0.08397780	      3.49630380
      0.13500000	    -10.40646553	      1.49381805	     -4.86203489	     -0.20482769	      0.83851548	     -0.54802312	     34.19162134	    -10.31736547	    -11.41431818	     58.55847963	      1.02203827	     13.12779802	      0.00000000	      0.00000000	     34.34876417	     -6.06431753	      1.35634602	     57.07599803	      0.99616409	     10.07161687	      0.00000000	      0.00000000	     -6.56915600	      0.09271409	      3.52496904
